# xmcd
#
# Track frame offsets: 
#        150
#        17861
#        35139
#        50702
#        68097
#        81808
#        95665
#        107201
#        121045
#        134408
#        143826
#        158446
#        174411
#        196006
#        214193
#        227782
#
# Disc length: 3268 seconds
#
# Revision: 1
# Processed by: cddbd v1.5.2PL0 Copyright (c) Steve Scherf et al.
# Submitted via: ExactAudioCopy v1.0b3
#
DISCID=dc0cc210
DTITLE=Willie Nelson - 16 Biggest Hits Volume II
DYEAR=2007
DGENRE=Country
TTITLE0=All Of Me
TTITLE1=Me And Paul
TTITLE2=I'd Have To Be Crazy
TTITLE3=Faded Love - Duet With Ray Price
TTITLE4=Heartbreak Hotel - Duet With Leon Russell
TTITLE5=Highway Man - With Waylon Jennings, Johnny Cash And Kris Krist
TTITLE5=offerson
TTITLE6=Mona Lisa
TTITLE7=There You Are
TTITLE8=Good Hearted Woman - Waylon and Willie
TTITLE9=Something To Brag About - Duet With Mary Kay Place
TTITLE10=Sweet Memories
TTITLE11=Let It Be Me
TTITLE12=Pancho and Lefty - Duet With Merle Haggard
TTITLE13=Help Me Make It Through The Night
TTITLE14=I Love You A Thousand Ways
TTITLE15=Without A Song
EXTD=
EXTT0=
EXTT1=
EXTT2=
EXTT3=
EXTT4=
EXTT5=
EXTT6=
EXTT7=
EXTT8=
EXTT9=
EXTT10=
EXTT11=
EXTT12=
EXTT13=
EXTT14=
EXTT15=
PLAYORDER=
